<svg width="18" height="25" viewBox="0 0 18 25" fill="none" xmlns="http://www.w3.org/2000/svg">
<path d="M15.5741 14.4066C16.1291 13.86 17.0288 13.86 17.5838 14.4066C18.1387 14.9532 18.1387 15.8394 17.5838 16.386L10.0048 23.8509C9.44988 24.3975 8.55012 24.3975 7.99516 23.8509L0.416217 16.386C-0.138739 15.8394 -0.138739 14.9532 0.416217 14.4066C0.971172 13.86 1.87093 13.86 2.42589 14.4066L7.57895 19.4821L7.57895 1.39967C7.57895 0.626652 8.21517 -4.27708e-07 9 -3.93402e-07C9.78483 -3.59097e-07 10.4211 0.626652 10.4211 1.39967L10.4211 19.4821L15.5741 14.4066Z" fill="white"/>
</svg>
